<svg width="120" height="90" viewBox="0 0 120 90" fill="none" xmlns="http://www.w3.org/2000/svg">
<g opacity="0.15">
<path d="M1.14148 88.0825C2.01053 89.0686 3.26837 89.7033 4.64426 89.85C6.02015 89.9967 7.40407 89.6438 8.49809 88.867L118.001 9.52264C119.098 8.72684 119.804 7.56579 119.965 6.2944C120.126 5.02301 119.728 3.7452 118.859 2.74154C117.99 1.75544 116.733 1.12071 115.357 0.973967C113.981 0.827227 112.597 1.18022 111.503 1.95695L1.99973 81.2901C0.902415 82.088 0.195889 83.2509 0.0350052 84.5241C-0.125878 85.7974 0.272029 87.077 1.14148 88.0825Z" fill="#C2C9D1"/>
<path d="M1.14148 88.0825C2.01053 89.0686 3.26837 89.7033 4.64426 89.85C6.02015 89.9967 7.40407 89.6438 8.49809 88.867L118.001 9.52264C119.098 8.72684 119.804 7.56579 119.965 6.2944C120.126 5.02301 119.728 3.7452 118.859 2.74154C117.99 1.75544 116.733 1.12071 115.357 0.973967C113.981 0.827227 112.597 1.18022 111.503 1.95695L1.99973 81.2901C0.902415 82.088 0.195889 83.2509 0.0350052 84.5241C-0.125878 85.7974 0.272029 87.077 1.14148 88.0825Z" fill="white" fill-opacity="0.75"/>
</g>
</svg>
