<svg width="131" height="98" viewBox="0 0 131 98" fill="none" xmlns="http://www.w3.org/2000/svg">
<path opacity="0.2" d="M129.556 2.31344C130.1 2.93726 130.504 3.65276 130.744 4.41898C130.985 5.18519 131.057 5.98704 130.956 6.77862C130.856 7.5702 130.585 8.33594 130.159 9.03199C129.733 9.72803 129.161 10.3407 128.475 10.8349L10.8001 95.8144C9.4139 96.8135 7.64937 97.2709 5.89354 97.0861C4.13772 96.9014 2.534 96.0897 1.43429 94.829C0.339712 93.5666 -0.159876 91.9599 0.0452447 90.362C0.250365 88.7641 1.14343 87.3058 2.52821 86.3076L120.203 1.32803C121.587 0.329574 123.35 -0.127479 125.103 0.0572872C126.857 0.242054 128.459 1.05353 129.556 2.31344Z" fill="#F7F7F9"/>
</svg>
