<svg width="20" height="21" viewBox="0 0 20 21" fill="none" xmlns="http://www.w3.org/2000/svg">
<g id="check">
<path id="Vector" fill-rule="evenodd" clip-rule="evenodd" d="M16.7069 6.2016C16.8944 6.38913 16.9997 6.64344 16.9997 6.9086C16.9997 7.17376 16.8944 7.42807 16.7069 7.6156L8.70692 15.6156C8.51939 15.8031 8.26508 15.9084 7.99992 15.9084C7.73475 15.9084 7.48045 15.8031 7.29292 15.6156L3.29292 11.6156C3.11076 11.427 3.00997 11.1744 3.01224 10.9122C3.01452 10.65 3.11969 10.3992 3.3051 10.2138C3.49051 10.0284 3.74132 9.9232 4.00352 9.92093C4.26571 9.91865 4.51832 10.0194 4.70692 10.2016L7.99992 13.4946L15.2929 6.2016C15.4804 6.01413 15.7348 5.90881 15.9999 5.90881C16.2651 5.90881 16.5194 6.01413 16.7069 6.2016Z" fill="white"/>
</g>
</svg>
