<svg width="606" height="770" viewBox="0 0 606 770" fill="none" xmlns="http://www.w3.org/2000/svg">
<g clip-path="url(#clip0_1_571)">
<g opacity="0.2">
<path opacity="0.55" d="M369.283 68.2676L404.678 64.1278C392.811 64.0763 380.904 65.469 369.283 68.2676Z" fill="url(#paint0_linear_1_571)"/>
<path opacity="0.55" d="M450.604 77.6293L318.115 93.1208C315.743 94.2086 313.375 95.3235 311.011 96.4653L454.456 79.6861C453.25 78.9889 451.973 78.3016 450.604 77.6293Z" fill="url(#paint1_linear_1_571)"/>
<path opacity="0.55" d="M471.846 97.2147L281.978 119.56L276.148 122.708L472.851 99.531C472.524 98.813 472.205 98.0085 471.846 97.2147Z" fill="url(#paint2_linear_1_571)"/>
<path opacity="0.55" d="M478.969 119.878L250.268 146.883L244.503 150.064L478.559 122.417C478.706 121.571 478.841 120.719 478.969 119.878Z" fill="url(#paint3_linear_1_571)"/>
<path opacity="0.55" d="M480.479 144.404L216.219 175.595C213.79 176.766 211.421 177.897 209.11 178.987L479.7 147.032C479.982 146.132 480.228 145.259 480.479 144.404Z" fill="url(#paint4_linear_1_571)"/>
<path opacity="0.55" d="M481.736 173.536L153.738 212.124C148.718 213.564 143.693 214.996 138.661 216.42L481.295 176.118C481.394 175.249 481.556 174.381 481.736 173.536Z" fill="url(#paint5_linear_1_571)"/>
<path opacity="0.55" d="M484.894 201.769L79.3187 249.433C76.7045 250.533 74.1163 251.675 71.5543 252.861L484.624 204.313C484.707 203.466 484.791 202.62 484.894 201.769Z" fill="url(#paint6_linear_1_571)"/>
<path opacity="0.55" d="M489.227 224.725L46.868 276.646C45.5039 277.628 44.1522 278.617 42.83 279.636L489.05 227.224C489.131 226.407 489.175 225.572 489.227 224.725Z" fill="url(#paint7_linear_1_571)"/>
<path opacity="0.55" d="M494.295 245.613L31.1662 299.981C30.3212 300.918 29.4959 301.851 28.6829 302.789L494.252 248.133L494.295 245.613Z" fill="url(#paint8_linear_1_571)"/>
<path opacity="0.55" d="M499.7 265.527L23.0842 321.474C22.5013 322.36 21.9109 323.257 21.3944 324.191L499.669 268.053C499.669 267.211 499.681 266.375 499.7 265.527Z" fill="url(#paint9_linear_1_571)"/>
<path opacity="0.55" d="M505.038 285.013L19.0404 342.023C18.618 342.913 18.203 343.791 17.7929 344.687L504.963 287.532L505.038 285.013Z" fill="url(#paint10_linear_1_571)"/>
<path opacity="0.55" d="M509.93 304.297L17.3933 362.063C17.0624 362.938 16.7437 363.818 16.4251 364.698L509.756 306.841L509.93 304.297Z" fill="url(#paint11_linear_1_571)"/>
<path opacity="0.55" d="M513.998 323.612L17.2246 381.882C16.9654 382.746 16.6863 383.616 16.4196 384.492L513.66 326.181C513.771 325.319 513.874 324.468 513.998 323.612Z" fill="url(#paint12_linear_1_571)"/>
<path opacity="0.55" d="M516.843 343.1L17.869 401.651L17.1134 404.286L516.267 345.734C516.477 344.845 516.64 343.978 516.843 343.1Z" fill="url(#paint13_linear_1_571)"/>
<path opacity="0.55" d="M518.614 362.856L18.845 421.481L18.1637 424.077L517.903 365.423L518.614 362.856Z" fill="url(#paint14_linear_1_571)"/>
<path opacity="0.55" d="M519.356 382.774L20.2952 441.326L19.7252 443.902L518.48 385.395C518.779 384.519 519.078 383.644 519.356 382.774Z" fill="url(#paint15_linear_1_571)"/>
<path opacity="0.55" d="M518.816 402.898L22.6344 461.107C22.4914 461.968 22.3559 462.819 22.2326 463.675L517.731 405.537C518.094 404.663 518.465 403.778 518.816 402.898Z" fill="url(#paint16_linear_1_571)"/>
<path opacity="0.55" d="M516.743 423.229L26.1845 480.759L26.0176 483.292L515.379 425.895C515.834 425.006 516.301 424.123 516.743 423.229Z" fill="url(#paint17_linear_1_571)"/>
<path opacity="0.55" d="M512.739 443.778L31.5871 500.278C31.6271 501.109 31.6869 501.936 31.7467 502.762L511.042 446.506C511.62 445.602 512.178 444.704 512.739 443.778Z" fill="url(#paint18_linear_1_571)"/>
<path opacity="0.55" d="M506.26 464.686L39.1856 519.53C39.3616 520.353 39.5349 521.205 39.7605 521.977L504.103 467.444C504.829 466.538 505.551 465.615 506.26 464.686Z" fill="url(#paint19_linear_1_571)"/>
<path opacity="0.55" d="M496.282 486.036L49.7972 538.388L50.9063 540.767L493.447 488.881C494.409 487.941 495.407 487.019 496.282 486.036Z" fill="url(#paint20_linear_1_571)"/>
<path opacity="0.55" d="M480.942 508.193L64.3124 557.003C64.9113 557.779 65.5301 558.549 66.1563 559.307L477.033 511.155C478.346 510.177 479.659 509.2 480.942 508.193Z" fill="url(#paint21_linear_1_571)"/>
<path opacity="0.55" d="M456.825 531.836L84.3216 575.352C85.272 576.09 86.23 576.816 87.2153 577.525L451.058 535.012C453.033 533.924 454.952 532.869 456.825 531.836Z" fill="url(#paint22_linear_1_571)"/>
<path opacity="0.55" d="M415.685 558.447L112.825 593.819C114.38 594.507 115.945 595.155 117.537 595.786L405.621 562.139C408.992 560.942 412.346 559.711 415.685 558.447Z" fill="url(#paint23_linear_1_571)"/>
<path opacity="0.55" d="M323.877 595.274L159.933 614.428C163.638 614.936 167.359 615.336 171.096 615.629L298.099 600.801C306.65 599.013 315.243 597.171 323.877 595.274Z" fill="url(#paint24_linear_1_571)"/>
</g>
<g clip-path="url(#clip1_1_571)">
<path fill-rule="evenodd" clip-rule="evenodd" d="M409.949 718.31C405.097 720.687 409.129 721.35 406.88 724.39C408.229 723.458 409.724 722.602 411.377 721.841C411.044 721.154 410.438 719.824 409.949 718.31H409.949Z" fill="#E5EEFF" stroke="#868CB5" stroke-width="1.17073" stroke-miterlimit="22.9256" stroke-linecap="round" stroke-linejoin="round"/>
<path fill-rule="evenodd" clip-rule="evenodd" d="M409.53 703.338L411.007 710.735C414.49 708.224 423.089 706.401 431.478 706.401C437.876 706.401 444.039 707.37 448.223 708.869L446.985 702.954C436.758 704.318 420.893 704.583 409.53 703.338Z" fill="#DAD9FF"/>
<path fill-rule="evenodd" clip-rule="evenodd" d="M468.29 758.135H394.662V764.211C394.662 767.393 397.264 769.995 400.446 769.995H462.506C465.688 769.995 468.29 767.392 468.29 764.211V758.135Z" fill="#868CB5"/>
<path fill-rule="evenodd" clip-rule="evenodd" d="M395.408 758.136C395.408 758.136 386.72 718.081 431.478 718.058C460.726 718.058 472.008 737.574 467.548 758.136C443.501 758.136 419.455 758.136 395.408 758.136H395.408Z" fill="#E5EEFF"/>
<path fill-rule="evenodd" clip-rule="evenodd" d="M431.48 706.398C441.876 706.398 451.653 708.959 453.325 712.188C454.997 715.417 451.333 722.336 451.333 722.336L450.325 722.144C445.177 719.858 438.909 718.557 431.48 718.557H431.479C423.145 718.561 416.666 719.999 411.637 722.334L411.626 722.336C411.626 722.336 407.962 715.417 409.634 712.188C411.306 708.958 421.539 706.398 431.48 706.398V706.398Z" fill="#868CB5"/>
<path d="M444.523 725.346C442.416 718.992 419.167 719.223 418.434 725.328" stroke="#868CB5" stroke-width="2.34105" stroke-miterlimit="22.9256" stroke-linecap="round" stroke-linejoin="round"/>
<path d="M419.075 727.723C420.944 727.224 422.173 725.745 421.819 724.42C421.465 723.094 419.663 722.424 417.794 722.923C415.924 723.422 414.696 724.901 415.05 726.226C415.403 727.552 417.206 728.222 419.075 727.723Z" fill="#868CB5"/>
<path d="M443.884 727.723C442.014 727.224 440.786 725.745 441.14 724.42C441.493 723.094 443.296 722.424 445.165 722.923C447.034 723.422 448.263 724.901 447.909 726.226C447.555 727.552 445.753 728.222 443.884 727.723Z" fill="#868CB5"/>
<path d="M444.523 734.232C442.416 727.878 419.167 728.109 418.434 734.213" stroke="#868CB5" stroke-width="2.34105" stroke-miterlimit="22.9256" stroke-linecap="round" stroke-linejoin="round"/>
<path d="M419.075 736.618C420.944 736.119 422.173 734.64 421.819 733.314C421.465 731.989 419.663 731.318 417.794 731.817C415.924 732.316 414.696 733.795 415.05 735.121C415.403 736.447 417.206 737.117 419.075 736.618Z" fill="#868CB5"/>
<path d="M443.884 736.618C442.014 736.119 440.786 734.64 441.14 733.314C441.493 731.989 443.296 731.318 445.165 731.817C447.034 732.316 448.263 733.795 447.909 735.121C447.555 736.447 445.753 737.117 443.884 736.618Z" fill="#868CB5"/>
<path d="M418.434 734.215L418.463 740.459" stroke="#868CB5" stroke-width="0.780212" stroke-miterlimit="22.9256" stroke-linecap="round" stroke-linejoin="round"/>
<path d="M444.524 725.344L444.538 740.46" stroke="#868CB5" stroke-width="0.780212" stroke-miterlimit="22.9256" stroke-linecap="round" stroke-linejoin="round"/>
<path d="M394.828 758.213C394.526 756.753 386.78 717.502 431.478 717.479C435.726 717.477 439.604 717.886 443.115 718.647C451.893 720.55 458.38 724.66 462.677 730.11C466.977 735.562 469.075 742.347 469.075 749.601C469.075 752.433 468.754 755.338 468.12 758.264C468.061 758.538 467.818 758.725 467.549 758.725L395.409 758.726C395.111 758.726 394.864 758.502 394.829 758.213H394.828ZM467.52 754.979L395.548 755.102C395.667 756.224 395.803 757.069 395.89 757.555H467.074C467.251 756.694 467.4 755.835 467.52 754.979ZM395.441 753.936L467.667 753.813C467.825 752.396 467.904 750.989 467.904 749.601C467.904 742.604 465.888 736.071 461.758 730.832C457.624 725.59 451.361 721.632 442.868 719.79C439.439 719.046 435.644 718.648 431.478 718.646C396.189 718.664 394.649 743.867 395.441 753.937L395.441 753.936Z" fill="#868CB5"/>
<path fill-rule="evenodd" clip-rule="evenodd" d="M452.848 718.31C457.7 720.687 453.669 721.35 455.918 724.39C454.569 723.458 453.074 722.602 451.42 721.841C451.753 721.154 452.359 719.824 452.849 718.31H452.848Z" fill="#E5EEFF" stroke="#868CB5" stroke-width="1.17073" stroke-miterlimit="22.9256" stroke-linecap="round" stroke-linejoin="round"/>
<path fill-rule="evenodd" clip-rule="evenodd" d="M493.418 220.586C493.675 220.822 493.926 221.063 494.175 221.306C498.475 225.474 501.339 230.385 502.904 235.558L502.933 235.652C502.983 235.815 503.033 235.978 503.079 236.142C504.791 241.98 504.962 248.34 503.242 254.597C502.268 258.138 500.757 261.391 498.824 264.297C493.386 272.783 484.138 278.934 471.993 279.427C471.583 279.445 471.171 279.458 470.758 279.461H470.756H470.756C467.729 279.487 464.652 279.108 461.597 278.283L429.85 269.704L429.841 269.701V331.51C429.371 345.95 431.464 352.933 420.626 357.038L420.625 357.151L420.387 357.16C420.383 357.448 420.365 357.73 420.335 358.006C420.329 357.73 420.34 357.448 420.373 357.16L384.451 358.376C372.843 358.976 359.334 359.61 344.529 359.917C308.965 360.653 286.797 360.21 262.854 357.152L262.853 357.038C252.016 352.932 254.109 345.951 253.639 331.511V261.768L229.449 275.196C228.447 275.751 227.428 276.251 226.396 276.696L226.141 276.804C221.658 278.695 216.937 279.552 212.28 279.459L211.819 279.449L211.514 279.436C202.081 279.085 194.229 275.148 188.607 269.271C186.59 267.207 184.808 264.852 183.331 262.219C180.694 257.517 179.308 252.432 179.062 247.36C178.556 238.978 181.135 230.303 187.514 223.163C187.634 223.027 187.756 222.892 187.879 222.757L188.113 222.504C188.404 222.192 188.7 221.885 189.004 221.584C202.215 207.405 241.582 169.657 249.689 163.6C259.041 154.494 281.613 153.367 293.799 153.367C300.77 143.252 303.962 140.3 320.069 140.3H363.415C379.522 140.3 382.712 143.252 389.682 153.367C402.177 153.367 424.546 154.579 433.794 163.602C451.554 176.868 474.46 202.161 492.349 219.647L493.419 220.587L493.418 220.586ZM494.175 221.306C493.926 221.064 493.677 220.822 493.418 220.586L494.175 221.306Z" fill="#FF0028"/>
<path fill-rule="evenodd" clip-rule="evenodd" d="M295.15 703.967L295.675 708.408C300.952 711.744 302.603 717.829 302.957 719.442C306.326 720.039 330.709 724.13 335.295 718.369C335.577 717.788 336.246 717.373 337.039 717.211L334 702.115C327.646 703.431 308.91 704.49 295.15 703.967H295.15Z" fill="#DAD9FF"/>
<path fill-rule="evenodd" clip-rule="evenodd" d="M340.183 756.919C340.183 756.919 343.526 743.421 340.572 721.698C341.456 717.05 336.417 717.113 335.793 718.686C330.747 725.223 302.461 719.949 302.461 719.949C302.461 719.949 288.964 718.964 282.184 718.7C255.989 717.579 221.797 732.574 226.759 758.286L340.183 756.92V756.919Z" fill="#E5EEFF"/>
<path fill-rule="evenodd" clip-rule="evenodd" d="M317.43 756.976C323.916 754.458 324.646 731.813 341.65 733.369L341.651 733.4C341.676 734.323 341.713 735.248 341.753 736.184C342.08 749.254 340.183 756.918 340.183 756.918L317.43 756.976Z" fill="#C5D2EB"/>
<path fill-rule="evenodd" clip-rule="evenodd" d="M334.699 769.726L228.905 769.997C226.869 770.002 226.187 768.29 225.9 765.714C225.487 762.009 224.23 756.99 228.872 757.201C266.692 758.917 303.619 758.376 340.184 756.916L340.201 763.314C340.21 766.833 337.734 769.718 334.699 769.726Z" fill="#868CB5"/>
<path d="M337.082 741.642C337.627 735.353 320.04 730.845 319.719 751.659C312.25 755.797 275.597 754.374 275.597 754.374" stroke="#868CB5" stroke-width="1.17073" stroke-miterlimit="22.9256" stroke-linecap="round" stroke-linejoin="round"/>
<path d="M339.713 756.35C340.242 753.893 342.629 741.151 339.995 721.778C339.986 721.715 339.989 721.653 339.999 721.593C340.253 720.259 339.963 719.406 339.448 718.913L339.42 718.884C339.176 718.661 338.877 718.506 338.561 718.414C338.222 718.316 337.864 718.289 337.53 718.321C336.945 718.377 336.457 718.596 336.336 718.904C336.315 718.956 336.288 719.003 336.255 719.045L336.228 719.077C330.896 725.849 302.438 720.54 302.356 720.526C302.109 720.48 301.927 720.285 301.887 720.052C301.877 720.006 299.206 703.89 282.059 708.071C281.367 709.179 281.715 711.13 282.129 713.451L282.133 713.471C282.417 715.067 282.731 716.827 282.768 718.691C282.774 719.013 282.518 719.279 282.196 719.285L282.162 719.285C276.8 719.056 271.094 719.509 265.459 720.596C255.741 722.471 246.247 726.234 239.099 731.64C232.011 737.001 227.238 743.979 226.881 752.324C226.807 754.055 226.922 755.85 227.247 757.705C233.758 757.702 240.388 757.72 247.016 757.738C260.638 757.775 274.262 757.812 286.876 757.661C299.468 757.51 311.067 757.168 322.664 756.826C328.301 756.66 333.94 756.494 339.714 756.35L339.713 756.35ZM341.163 721.717C344.11 743.497 340.762 757.018 340.753 757.057C340.692 757.309 340.468 757.499 340.198 757.505C334.294 757.651 328.494 757.822 322.695 757.993C311.104 758.334 299.512 758.675 286.89 758.827C274.273 758.979 260.643 758.942 247.015 758.905C240.235 758.886 233.454 758.868 226.8 758.872C226.509 758.893 226.242 758.693 226.185 758.399C225.779 756.291 225.63 754.25 225.714 752.279C226.088 743.542 231.041 736.27 238.394 730.709C245.688 725.192 255.355 721.356 265.239 719.449C270.736 718.388 276.307 717.923 281.578 718.097C281.495 716.564 281.227 715.06 280.981 713.678L280.976 713.658C280.496 710.966 280.095 708.719 281.223 707.23C281.302 707.113 281.421 707.024 281.569 706.987C298.477 702.731 302.388 716.858 302.957 719.449C306.326 720.046 330.71 724.137 335.296 718.376C335.621 717.703 336.467 717.253 337.421 717.161C337.893 717.116 338.402 717.155 338.886 717.295C339.367 717.435 339.829 717.677 340.218 718.037L340.254 718.068C341.021 718.801 341.472 719.98 341.165 721.718L341.163 721.717Z" fill="#868CB5"/>
<path d="M316.819 745.241L316.879 750.173" stroke="#868CB5" stroke-width="1.17073" stroke-miterlimit="22.9256" stroke-linecap="round" stroke-linejoin="round"/>
<path d="M314.63 745.249L314.689 750.181" stroke="#868CB5" stroke-width="1.17073" stroke-miterlimit="22.9256" stroke-linecap="round" stroke-linejoin="round"/>
<path fill-rule="evenodd" clip-rule="evenodd" d="M292.46 706.909C296.193 708.495 300.145 712.124 303.008 719.747C303.039 719.833 303.052 719.927 303.039 720.024C302.999 720.343 302.707 720.569 302.388 720.529C297.15 719.85 291.796 719.652 286.576 719.459C285.081 719.403 283.594 719.348 282.159 719.284C282.119 719.282 282.079 719.277 282.038 719.266C281.726 719.186 281.539 718.867 281.62 718.555C281.965 717.225 281.638 714.898 281.331 712.715C281.016 710.48 280.721 708.385 281.172 707.324C281.23 707.197 281.621 706.894 282.218 706.665L282.248 706.652C283.083 706.339 284.531 705.931 286.319 705.839C288.108 705.746 290.243 705.967 292.459 706.909L292.46 706.909Z" fill="#868CB5"/>
<path d="M264.705 754.439L226.305 754.538" stroke="#868CB5" stroke-width="1.17073" stroke-miterlimit="22.9256" stroke-linecap="round" stroke-linejoin="round"/>
<path d="M263.113 725.906L257.63 727.222C256.955 727.386 256.697 726.506 257.37 726.342L262.477 725.115C262.3 724.766 262.246 724.406 262.346 724.071C262.529 723.46 263.183 723.086 264.022 723.022C264.965 723.063 265.332 723.254 266.246 723.506C267.362 724.085 268.026 725.05 267.783 725.859C267.496 726.819 266.045 727.195 264.543 726.701C263.981 726.516 263.491 726.235 263.113 725.906H263.113ZM278.669 722.327C279.768 722.907 280.418 723.862 280.177 724.665C279.889 725.623 278.439 726 276.936 725.506C275.435 725.012 274.452 723.834 274.739 722.876C274.919 722.277 275.553 721.905 276.371 721.831C277.212 721.817 278.069 722.133 278.669 722.327Z" fill="#868CB5"/>
<path d="M265.254 724.418C265.254 724.418 264.618 713.201 263.606 719.707" stroke="#868CB5" stroke-width="2.34105" stroke-miterlimit="22.9256" stroke-linecap="round" stroke-linejoin="round"/>
<path d="M277.731 722.597C277.731 722.597 277.095 711.379 276.083 717.885" stroke="#868CB5" stroke-width="2.34105" stroke-miterlimit="22.9256" stroke-linecap="round" stroke-linejoin="round"/>
<path fill-rule="evenodd" clip-rule="evenodd" d="M269.797 365.314H337.968L411.756 365.666L414.871 413.611L425.725 523.144L457.114 699.485C456.989 704.968 401.718 706.383 396.215 699.485L363.095 556.719L338.317 439.337L334.206 556.967L336.122 701.045C338.773 703.579 282.439 706.438 279.515 701.045L267.938 522.283L269.797 365.314V365.314Z" fill="#6934D9"/>
<path fill-rule="evenodd" clip-rule="evenodd" d="M338.317 439.331L334.206 556.961L336.122 701.039C336.74 701.631 333.76 702.24 328.792 702.758L326.029 547.998L333.686 422.957L338.317 439.331Z" fill="#2B0087"/>
<path d="M452.656 701.934L420.12 525.418L403.988 362.282" stroke="#2B0087" stroke-width="2.34105" stroke-miterlimit="22.9256" stroke-linecap="round" stroke-linejoin="round"/>
<path d="M410.149 424.575L400.78 421.188L392.143 365.863" stroke="#2B0087" stroke-width="2.34105" stroke-miterlimit="22.9256" stroke-linecap="round" stroke-linejoin="round"/>
<path d="M343.805 407.332L343.583 366.008" stroke="#2B0087" stroke-width="2.34105" stroke-miterlimit="22.9256" stroke-linecap="round" stroke-linejoin="round"/>
<path d="M338.317 439.333L333.686 422.959L333.521 365.795" stroke="#2B0087" stroke-width="2.34105" stroke-miterlimit="22.9256" stroke-linecap="round" stroke-linejoin="round"/>
<path fill-rule="evenodd" clip-rule="evenodd" d="M363.414 151.056V144.187C374.557 146.438 381.942 151.283 381.942 158.968C381.942 165.695 377.058 172.964 369.242 178.569C368.328 179.225 367.294 179.446 366.191 179.222C365.088 178.997 364.224 178.39 363.637 177.429L363.126 176.591L363.319 176.49C357.683 179.44 350.092 181.248 341.741 181.248C333.485 181.248 325.972 179.48 320.357 176.59L319.845 177.43C319.259 178.391 318.394 178.998 317.291 179.222C316.188 179.446 315.154 179.225 314.24 178.569C306.423 172.964 301.54 165.695 301.54 158.968C301.54 151.282 308.924 146.438 320.068 144.187V151.055H363.414H363.414V151.056Z" fill="#D90324"/>
<path fill-rule="evenodd" clip-rule="evenodd" d="M367.527 158.155C368.746 159.889 369.415 161.775 369.415 163.749C369.415 172.244 357.025 179.131 341.74 179.131C326.457 179.131 314.066 172.244 314.066 163.749C314.066 161.775 314.736 159.889 315.954 158.155H367.527Z" fill="#AD041E"/>
<path d="M316.259 189.474C316.852 189.727 317.129 190.413 316.876 191.006C316.624 191.599 315.938 191.876 315.345 191.623C308.818 188.836 303.308 184.803 299.399 180.358C295.316 175.715 292.953 170.588 292.953 165.895C292.953 165.249 293.478 164.725 294.124 164.725C294.77 164.725 295.295 165.249 295.295 165.895C295.295 170.009 297.443 174.591 301.155 178.813C304.849 183.014 310.068 186.83 316.259 189.474H316.259Z" fill="#D90324"/>
<path d="M296.553 298.887L293.422 290.345C293.2 289.739 293.511 289.067 294.117 288.845C294.723 288.623 295.395 288.934 295.617 289.541L298.634 297.774H384.759L387.672 289.916C387.897 289.31 388.571 289.001 389.177 289.226C389.783 289.45 390.092 290.124 389.868 290.73L386.841 298.892L401.048 328.432C405.244 336.916 410.114 337.542 414.062 338.048L414.73 338.135C415.369 338.218 415.819 338.804 415.736 339.443C415.653 340.082 415.067 340.532 414.428 340.449L413.765 340.362C409.258 339.783 403.701 339.066 398.956 329.464L384.843 300.116H298.548L284.433 329.464C279.69 339.066 274.133 339.783 269.626 340.362L268.963 340.449C268.324 340.532 267.738 340.082 267.655 339.443C267.572 338.804 268.022 338.218 268.661 338.135L269.329 338.048C273.277 337.542 278.147 336.916 282.34 328.431L296.552 298.887H296.553Z" fill="#D90324"/>
<path fill-rule="evenodd" clip-rule="evenodd" d="M363.413 131.623V158.101C363.413 170.021 353.661 175.872 341.741 175.872H341.74C329.82 175.872 320.067 170.021 320.067 158.101V131.56C324.869 135.734 330.923 138.573 337.711 139.413C347.373 140.608 356.577 137.515 363.413 131.623H363.413Z" fill="#EBA884"/>
<path fill-rule="evenodd" clip-rule="evenodd" d="M420.335 358.013C419.861 362.335 416.209 365.038 411.757 365.661C394.221 368.117 368.609 369.357 346.055 369.382C323.501 369.357 287.822 369.276 270.287 366.821C265.512 366.153 262.854 362.038 262.854 357.152C286.797 360.211 308.965 360.654 344.53 359.917C380.095 359.18 408.188 356.557 420.388 357.044C420.344 357.375 420.328 357.698 420.335 358.013Z" fill="#2B0087"/>
<path d="M320.318 270.278C321.418 269.477 321.661 267.936 320.86 266.836C320.06 265.736 318.518 265.494 317.418 266.295L310.696 271.188C309.595 271.989 309.352 273.53 310.153 274.63C310.954 275.73 312.495 275.972 313.595 275.172L320.318 270.278Z" fill="#FF5E04"/>
<path d="M332.178 187.455C332.458 186.869 333.161 186.621 333.748 186.901C334.334 187.181 334.582 187.883 334.302 188.469L332.178 187.455ZM332.093 246.673L329.742 246.806V246.806L329.617 245.014L329.452 243.253L329.252 241.522L329.021 239.813L328.766 238.126L328.491 236.455L328.201 234.796L327.901 233.147L327.598 231.504L327.296 229.862L327 228.219L326.717 226.571L326.452 224.915L326.21 223.246L325.997 221.561L325.818 219.858L325.68 218.132L325.587 216.381L325.545 214.602L325.561 212.79L325.64 210.944L325.786 209.06L326.007 207.134L326.306 205.166L326.689 203.149L327.163 201.083L327.731 198.964L328.399 196.789L329.173 194.553L330.057 192.254L331.057 189.889L332.178 187.455L334.302 188.469L333.211 190.839L332.24 193.135L331.384 195.36L330.637 197.518L329.994 199.614L329.447 201.651L328.993 203.632L328.626 205.562L328.34 207.445L328.129 209.285L327.99 211.085L327.915 212.85L327.9 214.585L327.939 216.293L328.028 217.977L328.162 219.642L328.335 221.292L328.543 222.931L328.779 224.562L329.039 226.188L329.319 227.814L329.611 229.444L329.913 231.079L330.217 232.725L330.518 234.385L330.811 236.062L331.091 237.76L331.352 239.482L331.588 241.231L331.794 243.01L331.964 244.823L332.093 246.673V246.673ZM328.738 260.53L326.771 259.237L326.962 258.941L327.147 258.643L327.326 258.339L327.501 258.03L327.67 257.717L327.833 257.398L327.991 257.074L328.142 256.745L328.289 256.41L328.428 256.07L328.562 255.724L328.69 255.371L328.811 255.012L328.927 254.647L329.035 254.275L329.136 253.897L329.231 253.511L329.319 253.12L329.4 252.72L329.473 252.314L329.54 251.899L329.599 251.477L329.65 251.048L329.694 250.61L329.729 250.165L329.756 249.71L329.776 249.248L329.786 248.777L329.789 248.298L329.782 247.809L329.766 247.311L329.742 246.805L332.093 246.672L332.119 247.218L332.135 247.757L332.143 248.287L332.14 248.808L332.129 249.323L332.108 249.829L332.078 250.328L332.039 250.819L331.991 251.302L331.934 251.778L331.869 252.247L331.795 252.708L331.713 253.162L331.623 253.61L331.524 254.05L331.417 254.483L331.302 254.909L331.18 255.328L331.05 255.741L330.913 256.147L330.768 256.547L330.616 256.94L330.457 257.327L330.292 257.707L330.12 258.081L329.941 258.448L329.756 258.81L329.563 259.165L329.366 259.515L329.162 259.859L328.953 260.197L328.739 260.53H328.738ZM307.21 279.439L305.274 278.1L305.819 277.35L306.396 276.63L307 275.937L307.629 275.27L308.28 274.627L308.951 274.005L309.641 273.403L310.346 272.819L311.065 272.251L311.795 271.696L312.536 271.153L313.283 270.619L314.036 270.094L314.792 269.574L315.55 269.058L316.308 268.545L317.062 268.031L317.812 267.517L318.556 266.999L319.291 266.477L320.016 265.948L320.729 265.41L321.427 264.864L322.108 264.305L322.773 263.734L323.417 263.148L324.039 262.546L324.639 261.927L325.213 261.288L325.761 260.627L326.281 259.944L326.772 259.236L328.739 260.529L328.187 261.326L327.605 262.09L326.996 262.824L326.362 263.529L325.706 264.209L325.029 264.863L324.334 265.495L323.624 266.107L322.9 266.699L322.165 267.276L321.421 267.837L320.67 268.385L319.912 268.924L319.153 269.452L318.393 269.974L317.633 270.491L316.876 271.004L316.124 271.516L315.379 272.027L314.644 272.541L313.919 273.058L313.207 273.581L312.51 274.11L311.83 274.647L311.169 275.195L310.528 275.754L309.909 276.326L309.315 276.913L308.747 277.517L308.206 278.137L307.693 278.777L307.211 279.439H307.21ZM307.21 279.439C306.84 279.973 306.106 280.106 305.572 279.736C305.037 279.367 304.904 278.634 305.274 278.1L307.21 279.439Z" fill="#FF5E04"/>
<path d="M386.7 174.429C388.589 171.295 389.631 168.096 389.631 165.105" stroke="#D90324" stroke-width="2.34105" stroke-miterlimit="22.9256" stroke-linecap="round" stroke-linejoin="round"/>
<path fill-rule="evenodd" clip-rule="evenodd" d="M363.413 131.623V141.917C357.684 153.228 327.469 158.108 320.067 131.56C324.869 135.734 330.923 138.573 337.711 139.413C347.373 140.608 356.577 137.515 363.413 131.623H363.413Z" fill="#C98560"/>
<path fill-rule="evenodd" clip-rule="evenodd" d="M377.039 91.5329L374.655 110.605C372.408 128.762 355.867 141.66 337.71 139.413C319.553 137.167 306.656 120.626 308.902 102.469L311.283 83.2242L311.624 80.4665L313.554 64.8697L314.429 57.7978C314.429 57.7978 319.896 45.7549 327.566 48.3192C331.986 51.204 338.468 53.0719 344.021 53.1728C348.146 53.248 351.75 52.4793 353.627 51.5677C357.634 49.6221 369.676 64.9995 372.709 67.6331L372.734 89.7638C372.577 91.025 374.686 91.6106 377.038 91.5329H377.039Z" fill="#EBA884"/>
<path fill-rule="evenodd" clip-rule="evenodd" d="M381.411 85.1535C383.521 85.4151 385.279 87.9834 384.945 90.6898L384.001 98.3171C383.316 103.848 378.261 107.754 372.737 107.071L375.591 84.4336L381.411 85.1535Z" fill="#EBA884"/>
<path d="M316.881 23.6145C317.227 22.9826 317.489 22.769 318.084 22.8136C318.601 22.8698 318.807 23.2996 318.751 23.8165C318.748 23.848 316.768 34.33 321.384 37.6422C321.469 35.8226 318.103 24.8145 326.661 18.1232C335.355 11.3249 342.869 22.9805 342.556 23.5008C342.243 24.0211 360.004 26.2869 371.118 34.3449C382.231 42.4028 387.787 51.0649 386.19 65.641C384.593 80.2171 385.32 77.0929 383.037 88.7283C382.381 92.0703 372.401 92.455 372.734 89.7639L372.71 67.6332C369.677 64.9996 357.635 49.6222 353.628 51.5678C351.751 52.4799 348.147 53.2485 344.022 53.1729C338.469 53.0716 331.987 51.2042 327.567 48.3193C319.897 45.7551 314.43 57.7979 314.43 57.7979L312.482 73.5373L312.141 76.2953C312.141 76.2953 303.817 76.8003 305.668 67.5262C307.52 58.2525 304.249 56.7479 309.139 48.9528C312.479 43.6277 314.579 41.0366 317.206 39.4518C313.348 34.9143 315.979 25.2828 316.881 23.6157L316.881 23.6145Z" fill="#241813"/>
<path d="M334.664 84.3018C333.964 88.7364 332.861 93.0908 332.2 97.5386C331.842 99.9677 330.205 102.247 330.415 104.702C330.534 106.166 332.122 108.375 333.702 108.941C334.246 109.136 333.586 109.581 333.365 109.667C332.834 109.874 332.218 109.927 331.682 109.734C330.116 109.172 328.316 107.288 328.076 105.785C327.695 103.365 329.359 101.032 329.678 98.6213C330.297 93.9148 331.504 89.334 332.241 84.6535C332.369 83.8584 334.749 83.777 334.664 84.3014V84.3018Z" fill="black"/>
<path d="M379.814 94.7822C379.795 94.4661 380.035 94.1929 380.35 94.1735C380.667 94.1537 380.94 94.3938 380.959 94.7095C380.96 94.7306 381.423 102.254 376.996 103.498C376.69 103.583 376.373 103.404 376.287 103.099C376.201 102.793 376.38 102.476 376.686 102.39C380.221 101.398 379.815 94.8008 379.814 94.7822H379.814Z" fill="#C98560"/>
<path d="M346.686 83.2261C346.605 85.2427 348.173 86.942 350.192 87.0222C352.211 87.1023 353.909 85.5328 353.989 83.5166C354.069 81.4995 352.501 79.8002 350.482 79.7192C348.463 79.6391 346.766 81.2086 346.686 83.2261Z" fill="black"/>
<path d="M331.885 122.608C333.138 122.761 334.39 122.914 335.641 123.068C336.285 123.147 335.223 125.025 334.588 124.947C333.336 124.794 332.083 124.64 330.837 124.488C330.189 124.408 331.255 122.531 331.886 122.608H331.885Z" fill="black"/>
<path d="M316.962 66.2368C318.681 66.2852 323.575 65.4959 328.836 68.5254C331.029 69.7879 332.875 68.618 334.947 67.4402C337.019 66.2624 335.435 65.2644 333.291 64.0797C331.147 62.8945 327.357 61.8047 323.536 61.5836C319.716 61.363 317.154 62.9899 315.487 64.6516C313.82 66.3133 315.244 66.1889 316.963 66.2368H316.962Z" fill="#241813"/>
<path d="M362.997 67.4542C359.199 66.1707 355.121 65.4942 351.556 64.8685C349.631 64.4958 347.156 62.8502 346.373 60.81C345.525 58.5905 348.161 58.7215 349.292 58.9413C353.737 59.1744 357.816 59.8513 361.264 61.2708C363.136 62.0556 365.403 63.6288 366.04 65.8872C366.668 68.1249 364.105 67.9191 362.997 67.4542Z" fill="#241813"/>
<path d="M383.895 84.2999L362.082 78.0317" stroke="#160045" stroke-width="1.95094" stroke-miterlimit="22.9256" stroke-linecap="round" stroke-linejoin="round"/>
<path d="M337.418 80.915C335.18 78.962 330.234 78.4868 328.463 80.272" stroke="#160045" stroke-width="1.95094" stroke-miterlimit="22.9256"/>
<path fill-rule="evenodd" clip-rule="evenodd" d="M350.688 73.2338C363.343 74.1087 362.938 79.966 362.671 83.8307C362.404 87.695 361.874 95.3587 349.219 94.4847C336.564 93.6098 337.093 85.9462 337.36 82.0815C337.628 78.2172 338.032 72.3598 350.688 73.2342V73.2338Z" stroke="#160045" stroke-width="1.95094" stroke-miterlimit="22.9256"/>
<path fill-rule="evenodd" clip-rule="evenodd" d="M317.542 72.06C329.234 72.8927 328.841 78.7509 328.581 82.6156C328.322 86.4803 327.808 94.1291 316.115 93.2968C304.422 92.4641 304.936 84.8153 305.195 80.9506C305.455 77.0855 305.849 71.2277 317.541 72.0604L317.542 72.06Z" stroke="#160045" stroke-width="1.95094" stroke-miterlimit="22.9256"/>
<path d="M305.434 78.603L311.711 79.782" stroke="#160045" stroke-width="1.95094" stroke-miterlimit="22.9256" stroke-linecap="round" stroke-linejoin="round"/>
<path d="M318.065 83.8055C317.663 84.3076 316.93 84.3894 316.428 83.9886C315.926 83.5873 315.844 82.8538 316.245 82.3517C316.254 82.3401 319.638 78.1386 324.571 81.2735C325.116 81.6194 325.278 82.3422 324.932 82.8873C324.586 83.4323 323.863 83.5943 323.318 83.2484C320.141 81.2289 318.07 83.7981 318.065 83.8051V83.8055Z" fill="black"/>
<path fill-rule="evenodd" clip-rule="evenodd" d="M253.572 204.08L259.76 200.557L276.593 230.244L270.139 233.808C269.864 233.155 269.552 232.51 269.201 231.877C264.23 222.949 259.204 214.045 254.205 205.131C254.003 204.772 253.791 204.422 253.572 204.08V204.08Z" fill="#D90324"/>
<path fill-rule="evenodd" clip-rule="evenodd" d="M318.27 180.295C323.637 177.309 318.243 167.724 312.927 170.691L294.859 180.745C293.048 175.139 291.541 168.608 286.209 162.133C280.878 155.658 274.89 160.784 277.083 165.253C279.083 168.625 280.862 170.895 279.823 175.892C278.784 180.889 273.924 188.327 272.277 193.497L259.76 200.552L276.593 230.239L285.33 225.428C296.879 226.569 299.243 226.153 314.931 217.239L330.745 208.439C335.562 205.759 330.927 197.526 326.154 200.189L329.771 198.177C334.343 195.633 330.017 186.571 325.489 189.099C330.855 186.113 325.358 176.342 320.041 179.31L318.27 180.295H318.27Z" fill="#EBA884"/>
<path d="M319.756 178.798C320.038 178.641 320.395 178.743 320.552 179.025C320.71 179.308 320.608 179.665 320.326 179.821L319.756 178.798ZM307.412 185.666L319.756 178.798L320.326 179.821L307.983 186.689L307.412 185.666ZM307.983 186.689C307.701 186.846 307.344 186.744 307.187 186.462C307.029 186.179 307.131 185.822 307.412 185.666L307.983 186.689Z" fill="#C98560"/>
<path d="M325.203 188.589C325.485 188.432 325.842 188.534 325.999 188.817C326.156 189.099 326.055 189.456 325.773 189.613L325.203 188.589ZM312.859 195.458L325.203 188.589L325.773 189.613L313.429 196.481L312.859 195.458ZM313.429 196.481C313.147 196.638 312.79 196.536 312.633 196.254C312.476 195.971 312.577 195.614 312.859 195.458L313.429 196.481Z" fill="#C98560"/>
<path d="M326.985 199.059C327.197 198.942 327.497 199.075 327.654 199.358C327.811 199.64 327.767 199.965 327.556 200.082L326.985 199.059V199.059ZM317.73 204.209L326.985 199.059L327.556 200.082L318.3 205.232L317.73 204.209ZM318.3 205.232C318.088 205.349 317.789 205.216 317.632 204.934C317.474 204.651 317.518 204.326 317.73 204.209L318.3 205.232V205.232Z" fill="#C98560"/>
<path d="M351.508 187.332L349.203 187.814C349.07 187.179 349.478 186.555 350.114 186.422C350.75 186.289 351.375 186.697 351.508 187.332H351.508ZM352.855 243.515L352.959 241.706L353.062 239.96L353.162 238.27L353.259 236.63L353.351 235.036L353.436 233.482L353.513 231.961L353.582 230.469L353.64 228.999L353.686 227.545L353.72 226.102L353.74 224.665L353.744 223.226L353.732 221.78L353.702 220.321L353.653 218.843L353.584 217.341L353.493 215.807L353.378 214.237L353.24 212.624L353.076 210.962L352.885 209.247L352.666 207.471L352.417 205.628L352.137 203.714L351.826 201.722L351.48 199.647L351.099 197.482L350.683 195.222L350.229 192.861L349.736 190.395L349.203 187.815L351.507 187.333L352.043 189.926L352.539 192.41L352.997 194.788L353.416 197.065L353.801 199.25L354.15 201.347L354.465 203.362L354.748 205.302L355.001 207.17L355.223 208.974L355.417 210.718L355.584 212.409L355.725 214.052L355.841 215.653L355.935 217.217L356.005 218.751L356.055 220.259L356.086 221.747L356.098 223.221L356.094 224.685L356.074 226.147L356.04 227.611L355.993 229.084L355.934 230.57L355.865 232.076L355.787 233.607L355.701 235.169L355.609 236.768L355.512 238.41L355.412 240.1L355.309 241.844L355.205 243.649L352.854 243.517L352.855 243.515ZM369.57 272.193L369.041 271.188L368.484 270.264L367.9 269.412L367.293 268.623L366.663 267.89L366.013 267.205L365.346 266.56L364.664 265.95L363.968 265.366L363.261 264.803L362.547 264.251L361.827 263.707L361.106 263.16L360.386 262.606L359.672 262.036L358.967 261.444L358.275 260.82L357.602 260.159L356.952 259.453L356.331 258.694L355.745 257.878L355.198 256.997L354.697 256.047L354.246 255.024L353.849 253.921L353.51 252.734L353.233 251.458L353.018 250.087L352.871 248.614L352.793 247.032L352.786 245.335L352.855 243.516L355.205 243.649L355.141 245.377L355.146 246.972L355.219 248.441L355.354 249.791L355.547 251.029L355.795 252.165L356.091 253.203L356.434 254.154L356.818 255.028L357.242 255.83L357.704 256.574L358.201 257.266L358.732 257.913L359.295 258.526L359.89 259.11L360.514 259.672L361.165 260.219L361.84 260.757L362.535 261.293L363.249 261.833L363.977 262.385L364.715 262.954L365.46 263.549L366.206 264.175L366.951 264.841L367.688 265.553L368.412 266.318L369.121 267.142L369.807 268.033L370.466 268.996L371.094 270.037L371.685 271.16L369.571 272.194L369.57 272.193ZM369.57 272.193L371.684 271.159C371.97 271.742 371.729 272.447 371.145 272.732C370.561 273.017 369.855 272.776 369.569 272.193H369.57Z" fill="#FF5E04"/>
<path d="M362.094 259.271C361.094 258.347 359.536 258.408 358.612 259.407C357.688 260.407 357.75 261.966 358.749 262.889L364.856 268.533C365.855 269.457 367.414 269.396 368.338 268.396C369.261 267.397 369.2 265.838 368.2 264.914L362.094 259.271Z" fill="#FF5E04"/>
<path fill-rule="evenodd" clip-rule="evenodd" d="M421.086 215.048L414.229 213.115L405.028 245.98L412.146 247.886C412.256 247.187 412.403 246.488 412.592 245.791L420.723 216.223C420.832 215.825 420.953 215.434 421.086 215.048H421.086Z" fill="#D90324"/>
<path fill-rule="evenodd" clip-rule="evenodd" d="M352.562 207.521C346.635 205.913 349.566 195.312 355.44 196.914L375.395 202.329C375.805 196.452 375.698 189.75 379.316 182.184C382.935 174.618 389.979 178.153 388.925 183.018C387.794 186.772 386.613 189.402 388.823 194.003C391.033 198.604 397.54 204.655 400.382 209.277L414.227 213.115L405.027 245.979L395.389 243.41C384.453 247.294 382.059 247.46 364.687 242.579L347.221 237.84C341.901 236.396 344.421 227.29 349.693 228.728L345.699 227.644C340.649 226.274 342.669 216.438 347.673 217.803C341.746 216.195 344.732 205.389 350.607 206.991L352.562 207.521Z" fill="#EBA884"/>
<path d="M350.76 206.429L350.453 207.56C350.142 207.475 349.958 207.154 350.043 206.842C350.127 206.53 350.449 206.345 350.76 206.429ZM364.393 210.128L364.086 211.258L350.453 207.56L350.76 206.429L364.393 210.128ZM364.086 211.258L364.393 210.128C364.705 210.212 364.889 210.534 364.804 210.846C364.719 211.158 364.397 211.343 364.086 211.258Z" fill="#C98560"/>
<path d="M347.827 217.243L347.519 218.373C347.208 218.289 347.024 217.967 347.109 217.655C347.194 217.343 347.516 217.158 347.827 217.243ZM361.46 220.942L361.152 222.072L347.519 218.373L347.827 217.243L361.46 220.942ZM361.152 222.072L361.46 220.942C361.771 221.026 361.955 221.348 361.87 221.66C361.786 221.972 361.464 222.157 361.152 222.072Z" fill="#C98560"/>
<path d="M348.616 227.836L348.308 228.966C348.075 228.903 347.955 228.598 348.039 228.286C348.124 227.974 348.383 227.772 348.616 227.835V227.836ZM358.838 230.608L358.531 231.739L348.308 228.966L348.616 227.836L358.838 230.608ZM358.531 231.739L358.838 230.608C359.072 230.672 359.192 230.976 359.107 231.289C359.023 231.601 358.764 231.802 358.531 231.74V231.739Z" fill="#C98560"/>
<path fill-rule="evenodd" clip-rule="evenodd" d="M181.568 232.746C177.782 242.008 178.088 252.869 183.331 262.217C188.585 271.587 197.697 277.472 207.593 279.042C210.91 274.268 212.855 268.471 212.855 262.217C212.855 245.911 199.636 232.692 183.331 232.692C182.739 232.692 182.151 232.712 181.568 232.746Z" fill="#FF6600"/>
<path fill-rule="evenodd" clip-rule="evenodd" d="M497.863 225.568C503.767 233.649 506.083 244.266 503.241 254.602C500.394 264.96 492.965 272.862 483.739 276.766C477.594 271.356 473.717 263.433 473.717 254.602C473.717 240.133 484.125 228.097 497.863 225.568Z" fill="#FF6600"/>
<path d="M348.258 113.845C348.258 113.49 347.983 111.421 347.43 111.648C341.677 114.011 328.697 115.421 323.027 112.958C322.519 113.027 322.494 114.862 322.478 115.483C322.426 116.558 324.906 120.728 334.437 120.626C343.853 120.525 348.683 115.894 348.258 113.845Z" fill="black"/>
<path d="M348.258 113.845C348.258 113.49 347.983 111.421 347.43 111.648C341.677 114.011 328.697 115.421 323.027 112.958C322.519 113.027 322.494 114.862 322.478 115.483C322.426 116.558 324.906 120.728 334.437 120.626C343.853 120.525 348.683 115.894 348.258 113.845V113.845Z" stroke="black" stroke-width="0.297125" stroke-miterlimit="22.9256"/>
<path d="M347.353 113.831C347.367 113.649 347.205 112.406 346.766 112.542C341.778 114.093 331.314 115.948 323.661 113.963C323.187 113.84 323.401 114.652 323.407 114.834C323.465 115.958 329.226 118.174 334.462 118.025C339.699 117.875 347.628 114.884 347.353 113.83V113.831Z" fill="white"/>
<path fill-rule="evenodd" clip-rule="evenodd" d="M429.841 323.27L423.72 320.528C417.923 316.962 419.108 315.096 419.108 300.604V264.653C421.214 266.594 423.797 268.07 426.739 268.865L429.851 269.706L429.841 323.27Z" fill="#D90324"/>
<path fill-rule="evenodd" clip-rule="evenodd" d="M253.639 323.267L259.76 320.525C265.557 316.959 264.372 315.092 264.372 300.601V255.28C263.368 256.183 262.248 256.988 261.02 257.67L253.629 261.772L253.639 323.267Z" fill="#D90324"/>
<path d="M254.204 262.794C253.641 263.107 252.93 262.905 252.617 262.342C252.304 261.779 252.507 261.068 253.07 260.756L260.522 256.619C264.669 254.291 267.483 250.47 268.683 246.191C269.885 241.909 269.471 237.169 267.162 233.01L252.166 206.273C249.826 202.101 245.997 199.273 241.709 198.066C237.405 196.855 232.639 197.273 228.446 199.6L196.876 217.124C196.313 217.437 195.602 217.235 195.29 216.672C194.977 216.109 195.179 215.398 195.742 215.085L227.312 197.561C232.068 194.922 237.468 194.446 242.34 195.816C247.206 197.186 251.549 200.396 254.205 205.13C259.204 214.044 264.231 222.948 269.201 231.876C271.822 236.598 272.294 241.973 270.933 246.823C269.571 251.677 266.375 256.014 261.664 258.656C261.64 258.656 254.861 262.43 254.203 262.795L254.204 262.794Z" fill="#D90324"/>
<path d="M430.141 268.57C430.765 268.736 431.136 269.377 430.97 270.001C430.803 270.624 430.162 270.995 429.539 270.829C428.463 270.539 427.313 270.272 426.258 269.938C421.091 268.49 416.98 265.065 414.508 260.709C412.02 256.326 411.184 250.998 412.59 245.789L420.721 216.222C422.162 210.984 425.605 206.823 429.998 204.325C434.399 201.822 439.754 200.984 444.999 202.401L479.857 211.82C480.48 211.987 480.851 212.628 480.685 213.252C480.519 213.875 479.878 214.246 479.254 214.08L444.396 204.661C439.762 203.408 435.034 204.147 431.15 206.356C427.275 208.559 424.239 212.225 422.971 216.834L414.849 246.392C413.607 250.99 414.344 255.691 416.538 259.556C418.72 263.401 422.343 266.422 426.891 267.694C427.966 267.948 429.07 268.281 430.141 268.57H430.141Z" fill="#D90324"/>
<path d="M411.756 365.666L414.871 413.611L425.725 523.144L457.114 699.484C456.989 704.968 401.718 706.383 396.215 699.484L363.095 556.719L338.317 439.337L334.206 556.966L336.122 701.045C338.773 703.578 282.439 706.438 279.515 701.045L267.938 522.283L269.797 365.314" stroke="#2B0087" stroke-width="2.34105" stroke-miterlimit="22.9256" stroke-linecap="round" stroke-linejoin="round"/>
</g>
</g>
<defs>
<linearGradient id="paint0_linear_1_571" x1="381.031" y1="53.7667" x2="396.46" y2="81.2227" gradientUnits="userSpaceOnUse">
<stop stop-color="#6934DD"/>
<stop offset="1" stop-color="#FF0431"/>
</linearGradient>
<linearGradient id="paint1_linear_1_571" x1="358.689" y1="37.5563" x2="421.378" y2="148.873" gradientUnits="userSpaceOnUse">
<stop stop-color="#6934DD"/>
<stop offset="1" stop-color="#FF0431"/>
</linearGradient>
<linearGradient id="paint2_linear_1_571" x1="342.253" y1="40.4316" x2="429.869" y2="193.456" gradientUnits="userSpaceOnUse">
<stop stop-color="#6934DD"/>
<stop offset="1" stop-color="#FF0431"/>
</linearGradient>
<linearGradient id="paint3_linear_1_571" x1="323.423" y1="51.6185" x2="428.274" y2="233.828" gradientUnits="userSpaceOnUse">
<stop stop-color="#6934DD"/>
<stop offset="1" stop-color="#FF0431"/>
</linearGradient>
<linearGradient id="paint4_linear_1_571" x1="300.281" y1="65.3143" x2="421.345" y2="275.93" gradientUnits="userSpaceOnUse">
<stop stop-color="#6934DD"/>
<stop offset="1" stop-color="#FF0431"/>
</linearGradient>
<linearGradient id="paint5_linear_1_571" x1="253.628" y1="73.4823" x2="405.83" y2="339.954" gradientUnits="userSpaceOnUse">
<stop stop-color="#6934DD"/>
<stop offset="1" stop-color="#FF0431"/>
</linearGradient>
<linearGradient id="paint6_linear_1_571" x1="209.852" y1="81.1607" x2="392.659" y2="402.242" gradientUnits="userSpaceOnUse">
<stop stop-color="#6934DD"/>
<stop offset="1" stop-color="#FF0431"/>
</linearGradient>
<linearGradient id="paint7_linear_1_571" x1="192.088" y1="94.4434" x2="389.249" y2="441.221" gradientUnits="userSpaceOnUse">
<stop stop-color="#6934DD"/>
<stop offset="1" stop-color="#FF0431"/>
</linearGradient>
<linearGradient id="paint8_linear_1_571" x1="184.337" y1="109.724" x2="389.873" y2="471.504" gradientUnits="userSpaceOnUse">
<stop stop-color="#6934DD"/>
<stop offset="1" stop-color="#FF0431"/>
</linearGradient>
<linearGradient id="paint9_linear_1_571" x1="181.198" y1="125.899" x2="392.255" y2="497.602" gradientUnits="userSpaceOnUse">
<stop stop-color="#6934DD"/>
<stop offset="1" stop-color="#FF0431"/>
</linearGradient>
<linearGradient id="paint10_linear_1_571" x1="180.273" y1="142.654" x2="395.14" y2="521.538" gradientUnits="userSpaceOnUse">
<stop stop-color="#6934DD"/>
<stop offset="1" stop-color="#FF0431"/>
</linearGradient>
<linearGradient id="paint11_linear_1_571" x1="180.8" y1="160.027" x2="398.367" y2="543.888" gradientUnits="userSpaceOnUse">
<stop stop-color="#6934DD"/>
<stop offset="1" stop-color="#FF0431"/>
</linearGradient>
<linearGradient id="paint12_linear_1_571" x1="182.036" y1="178.096" x2="401.38" y2="565.116" gradientUnits="userSpaceOnUse">
<stop stop-color="#6934DD"/>
<stop offset="1" stop-color="#FF0431"/>
</linearGradient>
<linearGradient id="paint13_linear_1_571" x1="183.403" y1="196.921" x2="403.758" y2="585.512" gradientUnits="userSpaceOnUse">
<stop stop-color="#6934DD"/>
<stop offset="1" stop-color="#FF0431"/>
</linearGradient>
<linearGradient id="paint14_linear_1_571" x1="184.627" y1="216.428" x2="405.266" y2="605.501" gradientUnits="userSpaceOnUse">
<stop stop-color="#6934DD"/>
<stop offset="1" stop-color="#FF0431"/>
</linearGradient>
<linearGradient id="paint15_linear_1_571" x1="185.841" y1="236.546" x2="406.129" y2="624.962" gradientUnits="userSpaceOnUse">
<stop stop-color="#6934DD"/>
<stop offset="1" stop-color="#FF0431"/>
</linearGradient>
<linearGradient id="paint16_linear_1_571" x1="187.212" y1="257.499" x2="406.182" y2="643.527" gradientUnits="userSpaceOnUse">
<stop stop-color="#6934DD"/>
<stop offset="1" stop-color="#FF0431"/>
</linearGradient>
<linearGradient id="paint17_linear_1_571" x1="188.879" y1="279.458" x2="405.273" y2="660.913" gradientUnits="userSpaceOnUse">
<stop stop-color="#6934DD"/>
<stop offset="1" stop-color="#FF0431"/>
</linearGradient>
<linearGradient id="paint18_linear_1_571" x1="191.177" y1="302.752" x2="403.388" y2="676.647" gradientUnits="userSpaceOnUse">
<stop stop-color="#6934DD"/>
<stop offset="1" stop-color="#FF0431"/>
</linearGradient>
<linearGradient id="paint19_linear_1_571" x1="194.11" y1="327.79" x2="399.964" y2="690.639" gradientUnits="userSpaceOnUse">
<stop stop-color="#6934DD"/>
<stop offset="1" stop-color="#FF0431"/>
</linearGradient>
<linearGradient id="paint20_linear_1_571" x1="197.885" y1="355.188" x2="394.369" y2="701.995" gradientUnits="userSpaceOnUse">
<stop stop-color="#6934DD"/>
<stop offset="1" stop-color="#FF0431"/>
</linearGradient>
<linearGradient id="paint21_linear_1_571" x1="202.508" y1="386.119" x2="385.52" y2="709.66" gradientUnits="userSpaceOnUse">
<stop stop-color="#6934DD"/>
<stop offset="1" stop-color="#FF0431"/>
</linearGradient>
<linearGradient id="paint22_linear_1_571" x1="207.875" y1="422.724" x2="370.91" y2="711.889" gradientUnits="userSpaceOnUse">
<stop stop-color="#6934DD"/>
<stop offset="1" stop-color="#FF0431"/>
</linearGradient>
<linearGradient id="paint23_linear_1_571" x1="213.324" y1="469.787" x2="345.296" y2="704.728" gradientUnits="userSpaceOnUse">
<stop stop-color="#6934DD"/>
<stop offset="1" stop-color="#FF0431"/>
</linearGradient>
<linearGradient id="paint24_linear_1_571" x1="214.338" y1="547.281" x2="285.785" y2="674.457" gradientUnits="userSpaceOnUse">
<stop stop-color="#6934DD"/>
<stop offset="1" stop-color="#FF0431"/>
</linearGradient>
<clipPath id="clip0_1_571">
<rect width="606" height="770" fill="white"/>
</clipPath>
<clipPath id="clip1_1_571">
<rect width="325.451" height="754" fill="white" transform="translate(179 16)"/>
</clipPath>
</defs>
</svg>
