<svg width="622" height="400" viewBox="0 0 622 400" fill="none" xmlns="http://www.w3.org/2000/svg">
<g filter="url(#filter0_d_1_1214)">
<rect x="10" y="8" width="602" height="380" rx="9.40966" fill="white"/>
<rect x="10.4705" y="8.47048" width="601.059" height="379.059" rx="8.93917" stroke="#EBEBEB" stroke-width="0.940966"/>
<rect x="36.347" y="39.0524" width="248.415" height="6.58676" fill="#C7ADFF"/>
<rect x="160" y="317.58" width="318.987" height="2.8229" fill="#C5D2EB"/>
<rect x="160" y="329.813" width="318.987" height="2.8229" fill="#C5D2EB"/>
<rect x="160" y="342.045" width="318.987" height="2.8229" fill="#C5D2EB"/>
<rect x="160" y="354.278" width="318.987" height="2.8229" fill="#C5D2EB"/>
<path d="M117.597 338.658C116.056 344.494 112.696 349.686 108.004 353.482C103.312 357.278 97.5319 359.48 91.5035 359.768C85.475 360.056 79.5116 358.415 74.4788 355.084C69.446 351.753 65.6057 346.905 63.5153 341.243C61.4249 335.581 61.1932 329.401 62.8539 323.598C64.5145 317.796 67.981 312.674 72.7503 308.975C77.5196 305.277 83.3434 303.195 89.3765 303.03C95.4096 302.866 101.338 304.629 106.301 308.063L100.035 317.12C96.9971 315.018 93.3685 313.939 89.6758 314.04C85.9831 314.14 82.4185 315.415 79.4993 317.678C76.5802 319.942 74.4584 323.077 73.442 326.629C72.4255 330.18 72.5674 333.963 73.8468 337.429C75.1263 340.894 77.4769 343.862 80.5573 345.9C83.6378 347.939 87.2878 348.943 90.9777 348.767C94.6675 348.591 98.2052 347.243 101.077 344.92C103.949 342.596 106.006 339.418 106.949 335.846L117.597 338.658Z" fill="#56C5FF" fill-opacity="0.5"/>
<path d="M90.8395 335.288C90.8462 336.932 91.8955 338.329 93.8536 338.329C95.7916 338.329 96.8743 336.932 96.8676 335.288V334.567C96.8743 332.909 95.8184 331.526 93.8536 331.526C91.9222 331.526 90.8462 332.923 90.8395 334.567V335.288ZM83.8157 327.456C83.8224 329.1 84.8716 330.483 86.8231 330.483C88.7678 330.483 89.8505 329.113 89.8438 327.456V326.734C89.8505 325.077 88.7945 323.693 86.8231 323.693C84.9117 323.693 83.8224 325.077 83.8157 326.734V327.456ZM84.4706 337.855H86.2149L95.6246 324.168H93.8803L84.4706 337.855ZM92.7843 334.567C92.791 333.912 93.0516 333.237 93.8536 333.237C94.6956 333.237 94.9162 333.912 94.9095 334.567V335.288C94.9162 335.943 94.6689 336.605 93.8536 336.605C93.0382 336.605 92.791 335.923 92.7843 335.288V334.567ZM85.7738 326.734C85.7805 326.099 86.0278 325.404 86.8231 325.404C87.6651 325.404 87.8923 326.079 87.8857 326.734V327.456C87.8923 328.111 87.6384 328.772 86.8231 328.772C86.0345 328.772 85.7805 328.111 85.7738 327.456V326.734Z" fill="#E5EEFF"/>
<path d="M163.211 297.766V71.0449" stroke="#F0F0F0" stroke-width="0.940966"/>
<path d="M232.579 297.766V71.0449" stroke="#F0F0F0" stroke-width="0.940966"/>
<path d="M301.945 297.766V71.0449" stroke="#F0F0F0" stroke-width="0.940966"/>
<path d="M372.148 297.766V71.0449" stroke="#F0F0F0" stroke-width="0.940966"/>
<path d="M441.515 297.766V71.0449" stroke="#F0F0F0" stroke-width="0.940966"/>
<path d="M510.882 297.766V71.0449" stroke="#F0F0F0" stroke-width="0.940966"/>
<path d="M581.084 297.766V71.0449" stroke="#F0F0F0" stroke-width="0.940966"/>
<path d="M163.211 71.0449H581.084" stroke="#F0F0F0" stroke-width="0.940966"/>
<path d="M163.211 96.7402H581.084" stroke="#F0F0F0" stroke-width="0.940966"/>
<path d="M163.211 121.678H581.084" stroke="#F0F0F0" stroke-width="0.940966"/>
<path d="M163.211 146.619H581.084" stroke="#F0F0F0" stroke-width="0.940966"/>
<path d="M163.211 172.312H581.084" stroke="#F0F0F0" stroke-width="0.940966"/>
<path d="M163.211 197.252H581.084" stroke="#F0F0F0" stroke-width="0.940966"/>
<path d="M163.211 222.193H581.084" stroke="#F0F0F0" stroke-width="0.940966"/>
<path d="M163.212 247.889H581.085" stroke="#F0F0F0" stroke-width="0.940966"/>
<path d="M163.211 272.826H581.084" stroke="#F0F0F0" stroke-width="0.940966"/>
<path d="M163.211 297.766H581.084" stroke="#F0F0F0" stroke-width="0.940966"/>
<path d="M163.211 179.87C163.211 179.87 197.477 199.519 232.578 199.519C267.68 199.519 267.68 78.6016 301.945 78.6016C337.047 78.6016 337.047 280.383 372.148 280.383C406.414 280.383 406.414 214.634 441.515 214.634C476.616 214.634 476.616 278.116 510.882 278.116C545.983 278.116 581.084 267.536 581.084 267.536" stroke="#A6CEE3" stroke-width="1.88193"/>
<path d="M160 179.931C160 180.733 160.352 181.502 160.979 182.068C161.606 182.635 162.456 182.954 163.343 182.954C164.23 182.954 165.08 182.635 165.707 182.068C166.334 181.502 166.686 180.733 166.686 179.931C166.686 179.129 166.334 178.361 165.707 177.794C165.08 177.227 164.23 176.908 163.343 176.908C162.456 176.908 161.606 177.227 160.979 177.794C160.352 178.361 160 179.129 160 179.931Z" fill="#A6CEE3"/>
<path d="M229.646 200.083C229.646 200.885 229.998 201.654 230.625 202.221C231.252 202.788 232.102 203.106 232.989 203.106C233.875 203.106 234.725 202.788 235.352 202.221C235.979 201.654 236.332 200.885 236.332 200.083C236.332 199.282 235.979 198.513 235.352 197.946C234.725 197.379 233.875 197.061 232.989 197.061C232.102 197.061 231.252 197.379 230.625 197.946C229.998 198.513 229.646 199.282 229.646 200.083Z" fill="#A6CEE3"/>
<path d="M299.29 79.1655C299.29 79.9673 299.643 80.7359 300.27 81.3028C300.897 81.8698 301.747 82.1885 302.633 82.1885C303.52 82.1885 304.37 81.8698 304.997 81.3028C305.624 80.7359 305.976 79.9673 305.976 79.1655C305.976 78.3638 305.624 77.5951 304.997 77.0282C304.37 76.4613 303.52 76.1426 302.633 76.1426C301.747 76.1426 300.897 76.4613 300.27 77.0282C299.643 77.5951 299.29 78.3638 299.29 79.1655Z" fill="#A6CEE3"/>
<path d="M368.937 280.697C368.937 281.499 369.289 282.267 369.916 282.834C370.543 283.401 371.393 283.72 372.28 283.72C373.166 283.72 374.017 283.401 374.644 282.834C375.271 282.267 375.623 281.499 375.623 280.697C375.623 279.895 375.271 279.126 374.644 278.559C374.017 277.993 373.166 277.674 372.28 277.674C371.393 277.674 370.543 277.993 369.916 278.559C369.289 279.126 368.937 279.895 368.937 280.697Z" fill="#A6CEE3"/>
<path d="M438.583 215.199C438.583 216 438.935 216.769 439.562 217.336C440.188 217.903 441.039 218.222 441.926 218.222C442.812 218.222 443.662 217.903 444.289 217.336C444.916 216.769 445.268 216 445.268 215.199C445.268 214.397 444.916 213.628 444.289 213.061C443.662 212.494 442.812 212.176 441.926 212.176C441.039 212.176 440.188 212.494 439.562 213.061C438.935 213.628 438.583 214.397 438.583 215.199Z" fill="#A6CEE3"/>
<path d="M508.228 278.177C508.228 278.979 508.58 279.748 509.207 280.315C509.834 280.881 510.684 281.2 511.571 281.2C512.457 281.2 513.308 280.881 513.935 280.315C514.562 279.748 514.914 278.979 514.914 278.177C514.914 277.376 514.562 276.607 513.935 276.04C513.308 275.473 512.457 275.154 511.571 275.154C510.684 275.154 509.834 275.473 509.207 276.04C508.58 276.607 508.228 277.376 508.228 278.177Z" fill="#A6CEE3"/>
<path d="M577.874 268.101C577.874 268.903 578.226 269.671 578.853 270.238C579.48 270.805 580.33 271.124 581.217 271.124C582.103 271.124 582.954 270.805 583.581 270.238C584.208 269.671 584.56 268.903 584.56 268.101C584.56 267.299 584.208 266.531 583.581 265.964C582.954 265.397 582.103 265.078 581.217 265.078C580.33 265.078 579.48 265.397 578.853 265.964C578.226 266.531 577.874 267.299 577.874 268.101Z" fill="#A6CEE3"/>
<path d="M450.237 201.11L439.994 207.406V201.11H436.311C433.713 201.11 431.606 199.004 431.606 196.405V179.19C431.606 176.592 433.713 174.485 436.311 174.485H467.104C469.702 174.485 471.808 176.592 471.808 179.19V196.405C471.808 199.004 469.702 201.11 467.104 201.11H450.237Z" fill="white"/>
<path d="M439.994 181.043V194.421H445.036M463.947 194.421H461.11M461.11 194.421V181.043H452.6V188.126M461.11 194.421H452.6M452.6 194.421H445.036M452.6 194.421V188.126M445.036 194.421V188.126H452.6M439.994 207.406L450.237 201.11H467.104C469.702 201.11 471.808 199.004 471.808 196.405V179.19C471.808 176.592 469.702 174.485 467.104 174.485H436.311C433.713 174.485 431.606 176.592 431.606 179.19V196.405C431.606 199.004 433.713 201.11 436.311 201.11H439.994V207.406Z" stroke="#4B0BBF" stroke-opacity="0.5" stroke-width="1.41145" stroke-linecap="round" stroke-linejoin="round"/>
<circle cx="48.1209" cy="94.4789" r="1.75589" stroke="#C5D2EB" stroke-width="0.877945"/>
<rect x="52.9497" y="169.544" width="37.6386" height="2.8229" fill="#C5D2EB"/>
<rect x="52.9497" y="178.512" width="37.6386" height="2.8229" fill="#C5D2EB"/>
<rect x="52.9497" y="187.479" width="37.6386" height="2.8229" fill="#C5D2EB"/>
<rect x="52.9497" y="203.783" width="37.6386" height="2.8229" fill="#C5D2EB"/>
<rect x="52.9497" y="220.464" width="37.6386" height="2.8229" fill="#C5D2EB"/>
<rect x="128.453" y="144.961" width="65.8459" height="2.63383" transform="rotate(-90 128.453 144.961)" fill="#FFD4BE"/>
<rect x="123.186" y="144.961" width="65.8459" height="2.63383" transform="rotate(-90 123.186 144.961)" fill="#FFD4BE"/>
<rect x="127.575" y="237.296" width="80.923" height="2.8229" transform="rotate(-90 127.575 237.296)" fill="#FFD4BE"/>
<path d="M163.28 233.166C163.28 233.166 278 118.441 359 105C451 89.7328 537.443 118.441 537.443 118.441" stroke="#F2C88C" stroke-width="1.75589"/>
<circle cx="48.254" cy="103.696" r="2.19486" fill="#DAD9FF"/>
<circle cx="46.6792" cy="172.177" r="2.19486" fill="#DAD9FF"/>
<circle cx="46.6792" cy="188.857" r="2.19486" fill="#DAD9FF"/>
<circle cx="46.6792" cy="222.219" r="2.19486" fill="#DAD9FF"/>
<circle cx="46.6792" cy="205.539" r="1.75589" stroke="#C5D2EB" stroke-width="0.877945"/>
<path d="M138.11 69.4585H41.5363C40.5665 69.4585 39.7804 70.2446 39.7804 71.2144V283.238C39.7804 284.208 40.5665 284.994 41.5363 284.994H138.11C139.08 284.994 139.866 284.208 139.866 283.238V71.2144C139.866 70.2446 139.08 69.4585 138.11 69.4585Z" stroke="#FFD4BE" stroke-width="1.31692"/>
<rect x="44.5813" y="80.4307" width="31.7615" height="4.38972" fill="#C5D2EB"/>
<rect x="44.5813" y="123.452" width="31.7615" height="4.38972" fill="#C5D2EB"/>
<rect x="44.5813" y="155.934" width="31.7615" height="4.38972" fill="#C5D2EB"/>
<rect x="44.5813" y="135.741" width="59.0912" height="2.63383" fill="#C5D2EB"/>
<rect x="51.9683" y="92.7219" width="31.6664" height="2.8229" fill="#C5D2EB"/>
<rect x="51.9683" y="102.38" width="31.6664" height="2.8229" fill="#C5D2EB"/>
</g>
<defs>
<filter id="filter0_d_1_1214" x="0.590343" y="0.472275" width="620.819" height="398.819" filterUnits="userSpaceOnUse" color-interpolation-filters="sRGB">
<feFlood flood-opacity="0" result="BackgroundImageFix"/>
<feColorMatrix in="SourceAlpha" type="matrix" values="0 0 0 0 0 0 0 0 0 0 0 0 0 0 0 0 0 0 127 0" result="hardAlpha"/>
<feOffset dy="1.88193"/>
<feGaussianBlur stdDeviation="4.70483"/>
<feComposite in2="hardAlpha" operator="out"/>
<feColorMatrix type="matrix" values="0 0 0 0 0 0 0 0 0 0 0 0 0 0 0 0 0 0 0.1 0"/>
<feBlend mode="normal" in2="BackgroundImageFix" result="effect1_dropShadow_1_1214"/>
<feBlend mode="normal" in="SourceGraphic" in2="effect1_dropShadow_1_1214" result="shape"/>
</filter>
</defs>
</svg>
